<?xml version="1.0" encoding="UTF-8" standalone="no"?>
<!-- Created with Inkscape (http://www.inkscape.org/) -->

<svg
   width="192"
   height="192"
   viewBox="0 0 50.800001 50.8"
   version="1.1"
   id="svg1"
   xml:space="preserve"
   inkscape:version="1.3.2 (091e20ef0f, 2023-11-25, custom)"
   sodipodi:docname="logo.svg"
   xmlns:inkscape="http://www.inkscape.org/namespaces/inkscape"
   xmlns:sodipodi="http://sodipodi.sourceforge.net/DTD/sodipodi-0.dtd"
   xmlns="http://www.w3.org/2000/svg"
   xmlns:svg="http://www.w3.org/2000/svg"><sodipodi:namedview
     id="namedview1"
     pagecolor="#ffffff"
     bordercolor="#000000"
     borderopacity="0.25"
     inkscape:showpageshadow="2"
     inkscape:pageopacity="0.0"
     inkscape:pagecheckerboard="0"
     inkscape:deskcolor="#d1d1d1"
     inkscape:document-units="mm"
     inkscape:zoom="1.4815911"
     inkscape:cx="-20.923452"
     inkscape:cy="112.71666"
     inkscape:window-width="1536"
     inkscape:window-height="792"
     inkscape:window-x="0"
     inkscape:window-y="0"
     inkscape:window-maximized="1"
     inkscape:current-layer="svg1" /><defs
     id="defs1" /><g
     inkscape:label="Layer 1"
     inkscape:groupmode="layer"
     id="layer1" /><rect
     style="fill:#ffffff;stroke:#000000;stroke-width:0;paint-order:markers stroke fill;fill-opacity:1"
     id="rect2"
     width="50.799999"
     height="50.799999"
     x="0"
     y="-50.799999"
     ry="0"
     rx="0"
     transform="scale(1,-1)" /><path
     d="m 35.847548,10.174427 0.657374,2.453352 -2.453352,0.657374 0.657373,2.453351 -2.453352,0.657374 0.657508,2.453852 -2.453351,0.657373 -2.453852,0.657508 -0.657507,-2.453852 -2.453352,0.657374 0.657508,2.453851 -2.453352,0.657374 -0.657508,-2.453852 -2.453352,0.657374 0.657508,2.453851 -2.453351,0.657374 -0.657508,-2.453852 -2.453851,0.657508 0.657507,2.453851 -2.453351,0.657374 0.657373,2.453351 2.453352,-0.657373 0.657373,2.453352 0.657374,2.453352 -2.453351,0.657373 -2.453352,0.657374 -2.453352,0.657374 -2.4533519,0.657373 0.6573734,2.453351 2.4533515,-0.657373 2.453352,-0.657374 2.453352,-0.657374 2.453351,-0.657373 2.453852,-0.657508 2.453351,-0.657373 2.453352,-0.657374 2.453352,-0.657374 2.453351,-0.657373 2.453852,-0.657507 -0.657374,-2.453352 -2.453851,0.657508 -0.657374,-2.453352 -0.657373,-2.453352 2.453851,-0.657508 2.453351,-0.657373 0.657374,2.453352 2.453352,-0.657374 0.657374,2.453352 2.453352,-0.657374 0.657373,2.453352 2.453351,-0.657374 -0.657373,-2.453351 -0.657374,-2.453352 -0.657373,-2.453352 -0.657374,-2.453351 -0.657507,-2.453852 -0.657374,-2.453351 -0.657374,-2.4533525 z m -2.758306,19.146083 0.657507,2.453851 0.657374,2.453351 2.453351,-0.657373 -0.657373,-2.453351 -0.657508,-2.453852 z m 1.314881,4.907202 -2.453852,0.657508 -2.453351,0.657373 -2.453352,0.657374 -2.453352,0.657374 -2.453351,0.657373 -2.453852,0.657508 -2.453351,0.657373 0.657374,2.453352 2.453351,-0.657373 2.453852,-0.657508 2.453351,-0.657373 2.453352,-0.657374 2.453352,-0.657374 2.453351,-0.657373 2.453852,-0.657508 z m -17.174461,4.601883 -0.657373,-2.453351 -2.453352,0.657374 0.657373,2.453351 z m -3.287002,-12.267258 -2.453352,0.657374 0.657374,2.453352 2.453352,-0.657374 z m 4.907203,-1.314881 2.453351,-0.657373 0.657374,2.453352 0.657374,2.453352 -2.453352,0.657373 -0.657373,-2.453352 z m 4.906703,-1.314747 2.453352,-0.657374 0.657374,2.453352 0.657374,2.453352 -2.453352,0.657374 -0.657374,-2.453352 z"
     style="fill:#ffd359"
     id="path1" /></svg>
