<?xml version="1.0" encoding="utf-8"?>
<!-- Generator: Adobe Illustrator 16.0.0, SVG Export Plug-In . SVG Version: 6.00 Build 0)  -->
<!DOCTYPE svg PUBLIC "-//W3C//DTD SVG 1.1//EN" "http://www.w3.org/Graphics/SVG/1.1/DTD/svg11.dtd">
<svg version="1.1" id="Capa_1" xmlns="http://www.w3.org/2000/svg" xmlns:xlink="http://www.w3.org/1999/xlink" x="0px" y="0px"
	 width="54px" height="40px" viewBox="0 0 54 40" enable-background="new 0 0 54 40" xml:space="preserve">
<g>
	<path fill="#D54D3F" d="M3.793,0.026h46.354c2.096,0,3.794,1.696,3.794,3.79v32.391c0,2.093-1.698,3.789-3.794,3.789H3.793
		C1.699,39.996,0,38.3,0,36.207V3.816C0,1.723,1.699,0.026,3.793,0.026z"/>
	<path fill="#EAEAEA" d="M7.299,0.216h41.117v39.778H7.299V0.216z"/>
	<path fill="#E3E3E2" d="M23.61,27.317L7.299,39.994L7.3,11.181l16.308,16.135"/>
	<path opacity="0.1" fill="#010202" enable-background="new    " d="M36.188,40L2.457,6.311l46.097-1.093l-0.139,34.778L36.188,40z"
		/>
	<path fill="#EFEFEF" d="M3.394,0.041l24.327,17.967L50.103,0.047L3.394,0.041z"/>
	<path fill="#DF5246" d="M52.575,6.063c1.51-1.054,1.879-3.131,0.823-4.64c-1.054-1.509-3.134-1.877-4.644-0.823l-21.44,15.581
		l-0.002,0.015l-0.002-0.001L5.876,0.602C4.345-0.438,2.25-0.059,1.195,1.45c-1.056,1.509-0.669,3.574,0.86,4.614l0,0l-0.087-0.06
		l25.349,18.439 M52.67,6.005l-25.471,18.56"/>
</g>
</svg>
