<?xml version="1.0" encoding="utf-8"?>
<!-- Generator: Adobe Illustrator 16.0.0, SVG Export Plug-In . SVG Version: 6.00 Build 0)  -->
<!DOCTYPE svg PUBLIC "-//W3C//DTD SVG 1.1//EN" "http://www.w3.org/Graphics/SVG/1.1/DTD/svg11.dtd">
<svg version="1.1" id="Capa_1" xmlns="http://www.w3.org/2000/svg" xmlns:xlink="http://www.w3.org/1999/xlink" x="0px" y="0px"
	 width="44px" height="40px" viewBox="0 0 44 40" enable-background="new 0 0 44 40" xml:space="preserve">
<path fill="#EB5E5F" d="M5.737,0.248C3.817,1.398,0.036,5.788,0,6.939v1.906c0,2.416,2.235,4.539,4.264,4.539
	c2.436,0,4.466-2.04,4.466-4.461c0,2.42,1.96,4.461,4.396,4.461c2.436,0,4.333-2.04,4.333-4.461c0,2.42,2.084,4.461,4.52,4.461
	h0.044c2.437,0,4.521-2.04,4.521-4.461c0,2.42,1.897,4.461,4.333,4.461s4.396-2.04,4.396-4.461c0,2.42,2.03,4.461,4.466,4.461
	c2.027,0,4.262-2.123,4.262-4.539V6.939c-0.037-1.151-3.818-5.541-5.736-6.691C32.299,0.036,28.162-0.001,21.998,0
	C15.838,0,7.435,0.098,5.737,0.248L5.737,0.248z M17.429,12.246c-0.233,0.41-0.521,0.786-0.857,1.115
	c-0.953,0.944-2.235,1.473-3.569,1.472c-1.391,0-2.658-0.563-3.578-1.472c-0.332-0.33-0.585-0.683-0.817-1.093v0.001
	c-0.23,0.412-0.556,0.764-0.888,1.094c-0.955,0.944-2.24,1.472-3.576,1.471c-0.167,0-0.341-0.046-0.482-0.095
	c-0.193,2.061-0.278,4.029-0.307,5.467v0.008c-0.004,0.729-0.007,1.33-0.011,2.162C3.38,26.7,2.919,36.389,5.229,38.77
	c3.58,0.845,10.168,1.229,16.777,1.23h0.001c6.611-0.002,13.199-0.386,16.779-1.229c2.31-2.381,1.848-12.07,1.886-16.393
	c-0.003-0.833-0.007-1.433-0.011-2.163v-0.008c-0.029-1.436-0.112-3.405-0.309-5.466c-0.141,0.048-0.316,0.095-0.483,0.095
	c-1.337,0.001-2.621-0.527-3.577-1.471c-0.334-0.331-0.656-0.683-0.889-1.094v-0.001c-0.232,0.41-0.486,0.763-0.819,1.093
	c-0.919,0.909-2.187,1.472-3.576,1.472s-2.65-0.563-3.57-1.472c-0.336-0.33-0.624-0.705-0.857-1.115
	c-0.229,0.41-0.517,0.785-0.849,1.115c-0.956,0.945-2.24,1.474-3.578,1.472c-0.049,0-0.098-0.002-0.146-0.004h-0.002
	c-0.048,0.002-0.097,0.004-0.145,0.004c-1.392,0-2.658-0.563-3.578-1.472c-0.334-0.33-0.619-0.705-0.85-1.115L17.429,12.246z
	 M13.755,17.045v0.001h0.004c1.454,0.003,2.747,0,4.348,1.766c1.262-0.133,2.577-0.2,3.896-0.198h0.002
	c1.319-0.002,2.636,0.066,3.896,0.199c1.603-1.765,2.894-1.761,4.349-1.765h0.004v-0.002c0.688,0,3.438,0,5.354,5.438l2.059,7.459
	c1.525,5.549-0.487,5.686-2.998,5.689c-3.727-0.139-5.789-2.873-5.789-5.605c-2.061,0.342-4.467,0.514-6.872,0.514h-0.001
	c-2.404,0-4.811-0.172-6.871-0.514c0,2.732-2.062,5.465-5.787,5.605c-2.511-0.004-4.525-0.141-2.999-5.688l2.057-7.459
	c1.917-5.438,4.667-5.438,5.354-5.438L13.755,17.045z M22.001,21.318v0.002c-0.003,0.003-3.92,3.639-4.624,4.932l2.564-0.104v2.26
	c0,0.106,1.03,0.063,2.06,0.015h0.002c1.03,0.049,2.06,0.092,2.06-0.014v-2.261l2.566,0.104c-0.705-1.293-4.626-4.931-4.626-4.931
	v-0.002H22.001L22.001,21.318z"/>
</svg>
