<svg id="Layer_1" data-name="Layer 1" xmlns="http://www.w3.org/2000/svg" viewBox="0 0 50 44.99"><defs><style>.cls-1{fill:#ff2449;}</style></defs><path class="cls-1" d="M6.52,2.78C4.34,4.08,0,9,0,10.31v2.14a5.32,5.32,0,0,0,4.84,5.11,5.11,5.11,0,0,0,5.08-5,5,5,0,0,0,5,5,5,5,0,0,0,4.92-5,5.16,5.16,0,0,0,5.14,5H25a5.16,5.16,0,0,0,5.13-5,5,5,0,0,0,4.93,5,5,5,0,0,0,5-5,5.11,5.11,0,0,0,5.08,5A5.32,5.32,0,0,0,50,12.45V10.31C50,9,45.66,4.08,43.48,2.78,36.7,2.55,32,2.5,25,2.51s-16.55.11-18.48.27Zm13.29,13.5a5.94,5.94,0,0,1-1,1.25,5.79,5.79,0,0,1-8.12,0,5.31,5.31,0,0,1-.93-1.23h0a5.43,5.43,0,0,1-1,1.23,5.76,5.76,0,0,1-4.06,1.66,1.63,1.63,0,0,1-.55-.11c-.22,2.32-.32,4.53-.35,6.15h0c0,.82,0,1.49,0,2.43,0,4.87-.48,15.76,2.14,18.44C10,47.06,17.5,47.49,25,47.49h0c7.51,0,15-.43,19.06-1.38,2.63-2.68,2.11-13.57,2.15-18.44,0-.93,0-1.61,0-2.43h0c0-1.61-.13-3.83-.35-6.14a1.92,1.92,0,0,1-.55.1,5.79,5.79,0,0,1-4.07-1.65,6,6,0,0,1-1-1.23h0a5.31,5.31,0,0,1-.93,1.23,5.82,5.82,0,0,1-8.12,0,5.65,5.65,0,0,1-1-1.26,6,6,0,0,1-1,1.26,5.83,5.83,0,0,1-4.07,1.65h-.33a5.79,5.79,0,0,1-4.06-1.65,5.65,5.65,0,0,1-1-1.26Zm-4.18,5.4h0a5.57,5.57,0,0,1,4.95,2A42.58,42.58,0,0,1,25,23.44h0a42.73,42.73,0,0,1,4.42.23,5.59,5.59,0,0,1,4.94-2h0c.78,0,3.9,0,6.08,6.11l2.34,8.39c1.74,6.24-.55,6.4-3.41,6.4a6.4,6.4,0,0,1-6.57-6.3,50.28,50.28,0,0,1-7.81.57h0a50.1,50.1,0,0,1-7.81-.57c0,3.07-2.34,6.14-6.58,6.3-2.85,0-5.14-.16-3.41-6.39L9.55,27.8c2.18-6.12,5.31-6.12,6.09-6.12ZM25,26.48h0s-4.45,4.1-5.25,5.55l2.91-.12v2.55a9,9,0,0,0,2.34,0h0a9,9,0,0,0,2.34,0V31.91l2.92.12c-.8-1.45-5.26-5.55-5.26-5.55Z" transform="translate(0 -2.51)"/></svg>