<svg id="Layer_1" data-name="Layer 1" xmlns="http://www.w3.org/2000/svg" xmlns:xlink="http://www.w3.org/1999/xlink" viewBox="0 0 50 50"><defs><style>.cls-1{fill:#3fb3e7;}.cls-2{fill:#fff;}.cls-3{fill:#020203;}.cls-4{fill:#ec5f5e;}.cls-5{fill:url(#linear-gradient);}</style><linearGradient id="linear-gradient" x1="12.38" y1="-2265.56" x2="17.65" y2="-2281.73" gradientTransform="matrix(1, 0, 0, -1, 4.26, -2255.68)" gradientUnits="userSpaceOnUse"><stop offset="0" stop-color="#ea5599"/><stop offset="1" stop-color="#ec5f5e"/></linearGradient></defs><circle class="cls-1" cx="25" cy="25" r="25"/><g id="Layer_1-2" data-name="Layer 1-2"><g id="Layer_1-3" data-name="Layer 1-3"><path class="cls-2" d="M37.69,27.41a20,20,0,0,1-2.79.13V18.4h1.9A3.85,3.85,0,0,1,40,19.92a4.79,4.79,0,0,1,1,2.92A4.17,4.17,0,0,1,37.69,27.41Zm7.87-6.34a8.27,8.27,0,0,0-3.68-5.71,9.7,9.7,0,0,0-5.59-1.78H8.38A1.62,1.62,0,0,0,7,15.1v.38s-.13,12.31.13,19a4.26,4.26,0,0,0,4.18,3.93s12.82,0,18.91-.13h.89c3.55-.88,3.81-4.18,3.81-6C41.88,32.61,46.83,27.66,45.56,21.07Z"/><path class="cls-3" d="M11.29,39.18a5,5,0,0,1-4.91-4.62c-.25-6.68-.12-19-.12-19.08V15.1a2.33,2.33,0,0,1,2-2.23h28a10.47,10.47,0,0,1,6,1.9,9,9,0,0,1,4,6.18,9.83,9.83,0,0,1-2.06,8.44,11.39,11.39,0,0,1-8.61,3.71C35.42,36.36,34,38.35,31.27,39l-.18,0H30.2C24.19,39.17,11.42,39.18,11.29,39.18ZM8.38,14.3a.9.9,0,0,0-.68.8v.38c0,.13-.12,12.38.13,19a3.55,3.55,0,0,0,3.46,3.24c.13,0,12.88,0,18.9-.13H31c2.84-.76,3.17-3.35,3.17-5.24a.7.7,0,0,1,.23-.52.61.61,0,0,1,.52-.2,10.26,10.26,0,0,0,8.19-3.2,8.42,8.42,0,0,0,1.74-7.24h0A7.52,7.52,0,0,0,41.49,16a9.06,9.06,0,0,0-5.2-1.67Zm26.52,14a.73.73,0,0,1-.73-.72V18.4a.73.73,0,0,1,.73-.72h1.9a4.55,4.55,0,0,1,3.75,1.81,5.46,5.46,0,0,1,1.16,3.35,4.86,4.86,0,0,1-3.86,5.27l-.06,0A21.73,21.73,0,0,1,34.9,28.26Zm2.79-.85h0Zm-2.07-8.29v7.69a15.07,15.07,0,0,0,1.93-.11,3.46,3.46,0,0,0,2.72-3.77,4.15,4.15,0,0,0-.85-2.54,3.16,3.16,0,0,0-2.62-1.27Z"/><path class="cls-4" d="M20.69,33.12c.38.13.5,0,.5,0s4.44-4.06,6.47-6.47c1.78-2.16,1.91-5.58-1.14-7s-5.58,1.52-5.58,1.52a5,5,0,0,0-7-.76l-.13.13c-1.52,1.65-1,4.44.13,6a76,76,0,0,0,6.47,6.35Z"/><path class="cls-5" d="M20.94,33.25a.46.46,0,0,0,.38-.13s4.44-4.06,6.47-6.47c1.78-2.16,1.91-5.58-1.14-7s-5.58,1.52-5.58,1.52a5,5,0,0,0-7-.76l-.13.13c-1.52,1.65-1,4.44.13,6A77.51,77.51,0,0,0,20.69,33C20.69,33.25,20.81,33.25,20.94,33.25Z"/></g></g></svg>