<?xml version="1.0" encoding="utf-8"?>
<!-- Generator: Adobe Illustrator 16.0.0, SVG Export Plug-In . SVG Version: 6.00 Build 0)  -->
<!DOCTYPE svg PUBLIC "-//W3C//DTD SVG 1.1//EN" "http://www.w3.org/Graphics/SVG/1.1/DTD/svg11.dtd">
<svg version="1.1" id="Capa_1" xmlns="http://www.w3.org/2000/svg" xmlns:xlink="http://www.w3.org/1999/xlink" x="0px" y="0px"
	 width="63px" height="40px" viewBox="0 0 63 40" enable-background="new 0 0 63 40" xml:space="preserve">
<g>
	<path fill="#FFFFFF" d="M49.865,22.449c-2.435,0.303-4.412,0.075-4.412,0.075V7.662h2.995c1.979,0,3.889,0.822,5.181,2.317
		c0.909,1.054,1.636,2.535,1.636,4.583C55.265,19.567,52.68,21.539,49.865,22.449 M62.687,12.015
		c-0.874-4.602-3.358-7.468-5.903-9.24C54.149,0.941,50.996,0,47.786,0H2.215C0.63,0,0.023,1.543,0.017,2.316
		C0.016,2.417,0.02,2.82,0.02,2.82s-0.076,20.104,0.066,30.842C0.517,40.002,6.886,40,6.886,40s20.796-0.061,30.77-0.123
		c0.467-0.003,0.935-0.053,1.389-0.166c5.678-1.417,6.266-6.677,6.205-9.609C56.662,30.733,64.716,22.702,62.687,12.015"/>
	<path fill="#EC605F" d="M22.339,31.662c0.495,0.249,0.813-0.06,0.813-0.06s7.253-6.602,10.52-10.403
		c2.907-3.4,3.096-9.132-1.895-11.273c-4.991-2.142-9.097,2.52-9.097,2.52c-3.562-3.906-8.951-3.708-11.443-1.065
		c-2.494,2.644-1.623,7.18,0.236,9.705c1.746,2.369,9.418,9.188,10.582,10.343C22.055,31.428,22.14,31.516,22.339,31.662"/>
</g>
</svg>
