<?xml version="1.0" encoding="utf-8"?>
<!-- Generator: Adobe Illustrator 16.0.0, SVG Export Plug-In . SVG Version: 6.00 Build 0)  -->
<!DOCTYPE svg PUBLIC "-//W3C//DTD SVG 1.1//EN" "http://www.w3.org/Graphics/SVG/1.1/DTD/svg11.dtd">
<svg version="1.1" id="Capa_1" xmlns="http://www.w3.org/2000/svg" xmlns:xlink="http://www.w3.org/1999/xlink" x="0px" y="0px"
	 width="316px" height="36px" viewBox="0 0 316 36" enable-background="new 0 0 316 36" xml:space="preserve">
<polygon fill="#FFFFFF" points="18.057,0 0,36 36.114,36 "/>
<polygon fill="#FFFFFF" points="63.2,18 81.257,0 45.143,0 45.143,36 81.257,36 "/>
<polygon fill="#FFFFFF" points="126.4,18 108.343,18 126.4,0 90.286,0 90.286,36 126.4,36 "/>
<line fill="#FFFFFF" x1="171.543" y1="0" x2="171.543" y2="36"/>
<polyline fill="#FFFFFF" points="171.543,36 135.429,36 135.429,0 153.486,18 153.486,0 171.543,0 "/>
<polygon fill="#FFFFFF" points="180.571,0 180.571,36 216.686,18 "/>
<rect x="225.714" fill="#FFFFFF" width="18.058" height="36"/>
<rect x="252.8" fill="#FFFFFF" width="18.058" height="36"/>
<polygon fill="#FFFFFF" points="279.886,0 316,0 279.886,36 316,36 "/>
</svg>
