<?xml version="1.0" encoding="utf-8"?>
<!-- Generator: Adobe Illustrator 16.0.0, SVG Export Plug-In . SVG Version: 6.00 Build 0)  -->
<!DOCTYPE svg PUBLIC "-//W3C//DTD SVG 1.1//EN" "http://www.w3.org/Graphics/SVG/1.1/DTD/svg11.dtd">
<svg version="1.1" id="Capa_1" xmlns="http://www.w3.org/2000/svg" xmlns:xlink="http://www.w3.org/1999/xlink" x="0px" y="0px"
	 width="207.5px" height="207.5px" viewBox="0 0 207.5 207.5" enable-background="new 0 0 207.5 207.5" xml:space="preserve">
<rect fill="#1E1E1E" width="207.5" height="207.5"/>
<rect x="39.524" y="136.104" fill="#00C0C0" width="128.453" height="21.991"/>
<path fill="#00FFFF" d="M158.096,49.405v-9.881H49.405v9.881h-9.881v88.928h9.881v9.881h108.691v-9.881h9.881V49.405H158.096z
	 M118.571,59.286h19.762v19.762h-19.762V59.286z M69.167,59.286h19.762v19.762H69.167V59.286z M149.198,118.571h-9.881v9.881h-9.881
	v9.881H78.059v-9.881h-9.881v-9.881h-9.881V88.929h90.901V118.571z"/>
<rect x="69.167" y="59.286" width="19.762" height="19.762"/>
<rect x="118.571" y="59.286" width="19.762" height="19.762"/>
<polygon points="149.198,88.929 149.198,118.571 139.317,118.571 139.317,128.452 129.437,128.452 129.437,138.333 78.059,138.333 
	78.059,128.452 68.178,128.452 68.178,118.571 58.297,118.571 58.297,88.929 "/>
<polygon fill="#00C0C0" points="167.977,138.333 167.977,158.096 158.096,158.096 158.096,167.977 49.405,167.977 49.405,158.096 
	39.524,158.096 39.524,138.333 49.405,138.333 49.405,148.214 158.096,148.214 158.096,138.333 "/>
</svg>
