<?xml version="1.0" encoding="utf-8"?>
<!-- Generator: Adobe Illustrator 16.0.0, SVG Export Plug-In . SVG Version: 6.00 Build 0)  -->
<!DOCTYPE svg PUBLIC "-//W3C//DTD SVG 1.1//EN" "http://www.w3.org/Graphics/SVG/1.1/DTD/svg11.dtd">
<svg version="1.1" id="Capa_1" xmlns="http://www.w3.org/2000/svg" xmlns:xlink="http://www.w3.org/1999/xlink" x="0px" y="0px"
	 width="34px" height="40px" viewBox="0 0 34 40" enable-background="new 0 0 34 40" xml:space="preserve">
<g>
	<path fill="#263C7F" d="M12.78,10.205c0.082-0.521,0.417-0.946,0.867-1.161c0.206-0.099,0.434-0.152,0.674-0.152h9.772
		c1.158,0,2.238,0.075,3.226,0.234c0.282,0.045,0.556,0.097,0.822,0.155c0.267,0.06,0.525,0.126,0.777,0.199
		c0.124,0.036,0.248,0.075,0.369,0.113c0.485,0.16,0.936,0.35,1.353,0.569c0.488-3.111-0.004-5.229-1.691-7.147
		C27.09,0.903,23.732,0,19.438,0H6.969C6.091,0,5.343,0.636,5.207,1.502L0.014,34.327c-0.103,0.649,0.4,1.235,1.057,1.235h7.698
		l1.933-12.228L12.78,10.205z"/>
	<path fill="#263C7F" d="M9.66,38.644l0.695-4.404l-1.548-0.035H1.411L6.55,1.713c0.016-0.099,0.068-0.189,0.144-0.255
		s0.173-0.101,0.274-0.101h12.468c4.141,0,6.997,0.858,8.488,2.554c0.699,0.796,1.145,1.627,1.359,2.541
		c0.227,0.96,0.23,2.106,0.01,3.505l-0.016,0.103v0.896l0.699,0.396c0.589,0.312,1.057,0.668,1.415,1.076
		c0.599,0.68,0.985,1.544,1.149,2.568c0.169,1.054,0.113,2.309-0.164,3.728c-0.318,1.634-0.834,3.055-1.531,4.219
		c-0.641,1.073-1.457,1.962-2.426,2.651c-0.926,0.654-2.025,1.151-3.268,1.471c-1.205,0.313-2.578,0.47-4.084,0.47h-0.971
		c-0.693,0-1.367,0.249-1.896,0.696c-0.53,0.455-0.881,1.078-0.989,1.76l-0.073,0.396l-1.229,7.761l-0.056,0.285
		c-0.015,0.091-0.04,0.136-0.077,0.166c-0.033,0.027-0.082,0.046-0.128,0.046H9.66z"/>
	<path fill="#179BD7" d="M30.639,10.162c-0.037,0.237-0.08,0.48-0.128,0.729c-1.645,8.418-7.271,11.326-14.455,11.326h-3.658
		c-0.879,0-1.62,0.637-1.756,1.5L8.769,35.563l-0.531,3.357C8.149,39.487,8.587,40,9.163,40h6.488c0.769,0,1.421-0.558,1.542-1.313
		l0.064-0.329l1.222-7.73l0.078-0.424c0.119-0.758,0.773-1.314,1.541-1.314h0.971c6.287,0,11.207-2.545,12.646-9.91
		c0.601-3.076,0.289-5.646-1.301-7.451C31.934,10.983,31.337,10.531,30.639,10.162"/>
	<path fill="#253064" d="M28.919,9.479c-0.252-0.072-0.511-0.14-0.777-0.198s-0.541-0.11-0.822-0.155
		c-0.987-0.159-2.067-0.235-3.226-0.235h-9.772c-0.24,0-0.469,0.055-0.674,0.152c-0.451,0.217-0.786,0.642-0.867,1.163l-2.079,13.13
		l-0.06,0.383c0.137-0.863,0.877-1.5,1.756-1.5h3.658c7.185,0,12.812-2.909,14.456-11.326c0.048-0.249,0.09-0.492,0.127-0.729
		c-0.416-0.22-0.867-0.408-1.352-0.568C29.167,9.555,29.043,9.516,28.919,9.479"/>
</g>
</svg>
