<svg id="Layer_1" data-name="Layer 1" xmlns="http://www.w3.org/2000/svg" viewBox="0 0 50 50"><defs><style>.cls-1{fill:#1d9bf0;}.cls-2{fill:#fff;}</style></defs><g id="Dark_Blue" data-name="Dark Blue"><path class="cls-1" d="M43.75,50H6.25A6.25,6.25,0,0,1,0,43.75V6.25A6.25,6.25,0,0,1,6.25,0h37.5A6.25,6.25,0,0,1,50,6.25v37.5A6.25,6.25,0,0,1,43.75,50Z"/></g><g id="Logo_FIXED" data-name="Logo — FIXED"><path class="cls-2" d="M19.2,37.7c11.79,0,18.24-9.77,18.24-18.24,0-.27,0-.55,0-.82a13.2,13.2,0,0,0,3.21-3.33,13.11,13.11,0,0,1-3.69,1,6.44,6.44,0,0,0,2.82-3.55,12.91,12.91,0,0,1-4.07,1.55A6.41,6.41,0,0,0,24.6,18.71a7.19,7.19,0,0,0,.16,1.47,18.24,18.24,0,0,1-13.21-6.7,6.44,6.44,0,0,0,2,8.56,6.57,6.57,0,0,1-2.9-.8v.09a6.41,6.41,0,0,0,5.14,6.28,6.27,6.27,0,0,1-1.69.23,6.78,6.78,0,0,1-1.2-.11,6.41,6.41,0,0,0,6,4.45,12.93,12.93,0,0,1-8,2.75,12.79,12.79,0,0,1-1.52-.09A18.22,18.22,0,0,0,19.2,37.7"/></g></svg>