<?xml version="1.0" encoding="utf-8"?>
<!-- Generator: Adobe Illustrator 16.0.0, SVG Export Plug-In . SVG Version: 6.00 Build 0)  -->
<!DOCTYPE svg PUBLIC "-//W3C//DTD SVG 1.1//EN" "http://www.w3.org/Graphics/SVG/1.1/DTD/svg11.dtd">
<svg version="1.1" id="Capa_1" xmlns="http://www.w3.org/2000/svg" xmlns:xlink="http://www.w3.org/1999/xlink" x="0px" y="0px"
	 width="50px" height="40px" viewBox="0 0 50 40" enable-background="new 0 0 50 40" xml:space="preserve">
<path fill="#28AAE2" d="M15.724,40c18.868,0,29.188-15.391,29.188-28.737c0-0.437,0-0.872-0.03-1.306
	c2.009-1.429,3.741-3.2,5.118-5.228c-1.871,0.816-3.857,1.352-5.893,1.589c2.143-1.262,3.745-3.248,4.51-5.586
	c-2.012,1.177-4.215,2.006-6.514,2.452C38.219-0.884,31.721-1.08,27.59,2.745c-2.664,2.467-3.795,6.143-2.968,9.65
	C16.374,11.988,8.689,8.152,3.48,1.843C0.757,6.458,2.148,12.361,6.656,15.325C5.023,15.277,3.426,14.844,2,14.061
	c0,0.042,0,0.085,0,0.128c0.001,4.808,3.443,8.949,8.23,9.9c-1.51,0.406-3.095,0.465-4.632,0.174
	c1.344,4.114,5.195,6.932,9.583,7.014c-3.632,2.811-8.12,4.337-12.74,4.332C1.625,35.606,0.811,35.559,0,35.464
	c4.691,2.963,10.15,4.535,15.724,4.528"/>
</svg>
