<?xml version="1.0" encoding="UTF-8" standalone="no"?>
<svg
   version="1.1"
   width="170"
   height="40"
   shape-rendering="crispEdges"
   id="svg38"
   sodipodi:docname="short_x10.svg"
   inkscape:version="1.3.2 (091e20ef0f, 2023-11-25, custom)"
   inkscape:export-filename="short_x10.png"
   inkscape:export-xdpi="96"
   inkscape:export-ydpi="96"
   xmlns:inkscape="http://www.inkscape.org/namespaces/inkscape"
   xmlns:sodipodi="http://sodipodi.sourceforge.net/DTD/sodipodi-0.dtd"
   xmlns="http://www.w3.org/2000/svg"
   xmlns:svg="http://www.w3.org/2000/svg">
  <defs
     id="defs38" />
  <sodipodi:namedview
     id="namedview38"
     pagecolor="#ffffff"
     bordercolor="#000000"
     borderopacity="0.25"
     inkscape:showpageshadow="2"
     inkscape:pageopacity="0.0"
     inkscape:pagecheckerboard="0"
     inkscape:deskcolor="#d1d1d1"
     inkscape:zoom="1.2623874"
     inkscape:cx="-121.99108"
     inkscape:cy="41.191793"
     inkscape:window-width="1536"
     inkscape:window-height="792"
     inkscape:window-x="0"
     inkscape:window-y="0"
     inkscape:window-maximized="1"
     inkscape:current-layer="svg38" />
  <path
     d="M 40,0 V 10 20 30 40 H 50 V 30 20 H 60 70 V 10 0 H 60 50 Z"
     style="stroke-width:10"
     id="path39" />
  <path
     d="M 80,0 V 10 20 30 40 H 90 V 30 h 10 V 20 h 10 V 10 0 H 100 90 Z m 20,30 v 10 h 10 V 30 Z"
     style="stroke-width:10"
     id="path40" />
  <path
     d="m 130,0 v 10 h -10 v 10 h 10 v 10 h 10 v 10 h 10 V 30 h 10 V 20 h 10 V 10 H 160 V 0 H 150 V 10 H 140 V 0 Z"
     style="fill:#ff0000;stroke-width:10"
     id="path41" />
  <path
     d="M 0,0 V 10 20 H 10 20 V 10 H 30 V 0 H 20 10 Z M 20,20 V 30 H 10 0 V 40 H 10 20 30 V 30 20 Z"
     style="stroke-width:10"
     id="path38" />
</svg>
