<?xml version="1.0" encoding="UTF-8" standalone="no"?>
<svg
   version="1.1"
   width="27"
   height="9"
   shape-rendering="crispEdges"
   id="svg93"
   sodipodi:docname="big.svg"
   inkscape:version="1.3.2 (091e20ef0f, 2023-11-25, custom)"
   inkscape:export-filename="big.png"
   inkscape:export-xdpi="96"
   inkscape:export-ydpi="96"
   xmlns:inkscape="http://www.inkscape.org/namespaces/inkscape"
   xmlns:sodipodi="http://sodipodi.sourceforge.net/DTD/sodipodi-0.dtd"
   xmlns="http://www.w3.org/2000/svg"
   xmlns:svg="http://www.w3.org/2000/svg">
  <defs
     id="defs93" />
  <sodipodi:namedview
     id="namedview93"
     pagecolor="#ffffff"
     bordercolor="#000000"
     borderopacity="0.25"
     inkscape:showpageshadow="2"
     inkscape:pageopacity="0.0"
     inkscape:pagecheckerboard="0"
     inkscape:deskcolor="#d1d1d1"
     inkscape:zoom="38.173913"
     inkscape:cx="18.677677"
     inkscape:cy="5.3963554"
     inkscape:window-width="1536"
     inkscape:window-height="792"
     inkscape:window-x="0"
     inkscape:window-y="0"
     inkscape:window-maximized="1"
     inkscape:current-layer="svg93" />
  <path
     d="M 0,0 V 1 2 H 1 2 V 1 H 3 V 0 H 2 1 Z M 2,2 V 3 H 1 0 V 4 H 1 2 3 V 3 2 Z"
     style=""
     id="path101" />
  <path
     d="m 16,0 v 1 h 1 v 1 1 1 h 1 V 3 2 1 h 1 V 0 h -1 -1 z"
     style=""
     id="path95" />
  <path
     d="M 4,0 V 1 2 3 4 H 5 V 3 2 H 6 7 V 1 0 H 6 5 Z"
     style=""
     id="path100" />
  <path
     d="M 8,0 V 1 2 3 4 H 9 V 3 h 1 V 2 h 1 V 1 0 H 10 9 Z m 2,3 v 1 h 1 V 3 Z"
     style=""
     id="path99" />
  <path
     d="m 12,0 v 1 h 1 v 1 1 h -1 v 1 h 1 1 1 V 3 H 14 V 2 1 h 1 V 0 h -1 -1 z"
     style=""
     id="path96" />
  <path
     d="m 20,0 v 1 1 1 1 h 1 1 1 V 3 H 22 21 V 2 h 1 V 1 h 1 V 0 h -1 -1 z"
     style=""
     id="path94" />
  <path
     d="M 0,5 V 6 7 8 9 H 1 2 3 V 8 H 2 1 V 7 6 5 Z"
     style=""
     id="path102" />
  <path
     d="M 8,5 V 6 7 8 H 9 V 7 6 5 Z m 1,3 v 1 h 1 V 8 Z m 1,0 h 1 V 7 6 5 h -1 v 1 1 z"
     style=""
     id="path98" />
  <path
     d="m 23,5 v 1 h -1 v 1 h 1 v 1 h 1 v 1 h 1 V 8 h 1 V 7 h 1 V 6 H 26 V 5 H 25 V 6 H 24 V 5 Z"
     style="fill:#ff0000"
     id="path104" />
  <path
     d="M 4,5 V 6 7 8 9 H 5 6 7 V 8 7 6 5 H 6 5 Z M 5,6 H 6 V 7 8 H 5 V 7 Z"
     style=""
     id="path103" />
  <path
     d="m 12,5 v 1 1 1 1 h 1 1 1 V 8 H 14 13 V 7 h 1 V 6 h 1 V 5 h -1 -1 z"
     style=""
     id="path97" />
  <path
     d="m 24,0 v 1 1 h 1 1 V 1 h 1 V 0 h -1 -1 z m 2,2 v 1 h -1 -1 v 1 h 1 1 1 V 3 2 Z"
     style=""
     id="path93" />
</svg>
