<?xml version="1.0" encoding="UTF-8" standalone="no"?>
<svg
   version="1.1"
   width="33"
   height="4"
   shape-rendering="crispEdges"
   id="svg61"
   sodipodi:docname="long.svg"
   inkscape:version="1.3.2 (091e20ef0f, 2023-11-25, custom)"
   inkscape:export-filename="long.png"
   inkscape:export-xdpi="96"
   inkscape:export-ydpi="96"
   xmlns:inkscape="http://www.inkscape.org/namespaces/inkscape"
   xmlns:sodipodi="http://sodipodi.sourceforge.net/DTD/sodipodi-0.dtd"
   xmlns="http://www.w3.org/2000/svg"
   xmlns:svg="http://www.w3.org/2000/svg">
  <defs
     id="defs61" />
  <sodipodi:namedview
     id="namedview61"
     pagecolor="#ffffff"
     bordercolor="#000000"
     borderopacity="0.25"
     inkscape:showpageshadow="2"
     inkscape:pageopacity="0.0"
     inkscape:pagecheckerboard="0"
     inkscape:deskcolor="#d1d1d1"
     inkscape:zoom="30.275862"
     inkscape:cx="22.096811"
     inkscape:cy="1.9817768"
     inkscape:window-width="1536"
     inkscape:window-height="792"
     inkscape:window-x="0"
     inkscape:window-y="0"
     inkscape:window-maximized="1"
     inkscape:current-layer="svg61" />
  <path
     d="M 4,0 V 1 2 3 4 H 5 V 3 2 H 6 7 V 1 0 H 6 5 Z"
     style=""
     id="path62" />
  <path
     d="m 16,0 v 1 h 1 v 1 1 1 h 1 V 3 2 1 h 1 V 0 h -1 -1 z"
     style=""
     id="path65" />
  <path
     d="m 20,0 v 1 1 1 1 h 1 1 1 V 3 H 22 21 V 2 h 1 V 1 h 1 V 0 h -1 -1 z"
     style=""
     id="path66" />
  <path
     d="M 0,0 V 1 2 H 1 2 V 1 H 3 V 0 H 2 1 Z M 2,2 V 3 H 1 0 V 4 H 1 2 3 V 3 2 Z"
     style=""
     id="path61" />
  <path
     d="M 8,0 V 1 2 3 4 H 9 V 3 h 1 V 2 h 1 V 1 0 H 10 9 Z m 2,3 v 1 h 1 V 3 Z"
     style=""
     id="path63" />
  <path
     d="m 12,0 v 1 h 1 v 1 1 h -1 v 1 h 1 1 1 V 3 H 14 V 2 1 h 1 V 0 h -1 -1 z"
     style=""
     id="path64" />
  <path
     d="m 29,0 v 1 h -1 v 1 h 1 v 1 h 1 v 1 h 1 V 3 h 1 V 2 h 1 V 1 H 32 V 0 H 31 V 1 H 30 V 0 Z"
     style="fill:#ff0000"
     id="path68" />
  <path
     d="m 24,0 v 1 1 h 1 1 V 1 h 1 V 0 h -1 -1 z m 2,2 v 1 h -1 -1 v 1 h 1 1 1 V 3 2 Z"
     style=""
     id="path67" />
</svg>
