<?xml version="1.0" encoding="UTF-8" standalone="no"?>
<svg
   version="1.1"
   width="270"
   height="90"
   shape-rendering="crispEdges"
   id="svg93"
   sodipodi:docname="big_x10.svg"
   inkscape:version="1.3.2 (091e20ef0f, 2023-11-25, custom)"
   inkscape:export-filename="big_x10.png"
   inkscape:export-xdpi="96"
   inkscape:export-ydpi="96"
   xmlns:inkscape="http://www.inkscape.org/namespaces/inkscape"
   xmlns:sodipodi="http://sodipodi.sourceforge.net/DTD/sodipodi-0.dtd"
   xmlns="http://www.w3.org/2000/svg"
   xmlns:svg="http://www.w3.org/2000/svg">
  <defs
     id="defs93" />
  <sodipodi:namedview
     id="namedview93"
     pagecolor="#ffffff"
     bordercolor="#000000"
     borderopacity="0.25"
     inkscape:showpageshadow="2"
     inkscape:pageopacity="0.0"
     inkscape:pagecheckerboard="0"
     inkscape:deskcolor="#d1d1d1"
     inkscape:zoom="38.173913"
     inkscape:cx="18.677677"
     inkscape:cy="5.3963554"
     inkscape:window-width="1536"
     inkscape:window-height="792"
     inkscape:window-x="0"
     inkscape:window-y="0"
     inkscape:window-maximized="1"
     inkscape:current-layer="svg93" />
  <path
     d="M 0,0 V 10 20 H 10 20 V 10 H 30 V 0 H 20 10 Z M 20,20 V 30 H 10 0 V 40 H 10 20 30 V 30 20 Z"
     style="stroke-width:10"
     id="path101" />
  <path
     d="m 160,0 v 10 h 10 v 10 10 10 h 10 V 30 20 10 h 10 V 0 h -10 -10 z"
     style="stroke-width:10"
     id="path95" />
  <path
     d="M 40,0 V 10 20 30 40 H 50 V 30 20 H 60 70 V 10 0 H 60 50 Z"
     style="stroke-width:10"
     id="path100" />
  <path
     d="M 80,0 V 10 20 30 40 H 90 V 30 h 10 V 20 h 10 V 10 0 H 100 90 Z m 20,30 v 10 h 10 V 30 Z"
     style="stroke-width:10"
     id="path99" />
  <path
     d="m 120,0 v 10 h 10 v 10 10 h -10 v 10 h 10 10 10 V 30 H 140 V 20 10 h 10 V 0 h -10 -10 z"
     style="stroke-width:10"
     id="path96" />
  <path
     d="m 200,0 v 10 10 10 10 h 10 10 10 V 30 H 220 210 V 20 h 10 V 10 h 10 V 0 h -10 -10 z"
     style="stroke-width:10"
     id="path94" />
  <path
     d="M 0,50 V 60 70 80 90 H 10 20 30 V 80 H 20 10 V 70 60 50 Z"
     style="stroke-width:10"
     id="path102" />
  <path
     d="M 80,50 V 60 70 80 H 90 V 70 60 50 Z m 10,30 v 10 h 10 V 80 Z m 10,0 h 10 V 70 60 50 h -10 v 10 10 z"
     style="stroke-width:10"
     id="path98" />
  <path
     d="m 230,50 v 10 h -10 v 10 h 10 v 10 h 10 v 10 h 10 V 80 h 10 V 70 h 10 V 60 H 260 V 50 H 250 V 60 H 240 V 50 Z"
     style="fill:#ff0000;stroke-width:10"
     id="path104" />
  <path
     d="M 40,50 V 60 70 80 90 H 50 60 70 V 80 70 60 50 H 60 50 Z M 50,60 H 60 V 70 80 H 50 V 70 Z"
     style="stroke-width:10"
     id="path103" />
  <path
     d="m 120,50 v 10 10 10 10 h 10 10 10 V 80 H 140 130 V 70 h 10 V 60 h 10 V 50 h -10 -10 z"
     style="stroke-width:10"
     id="path97" />
  <path
     d="m 240,0 v 10 10 h 10 10 V 10 h 10 V 0 h -10 -10 z m 20,20 v 10 h -10 -10 v 10 h 10 10 10 V 30 20 Z"
     style="stroke-width:10"
     id="path93" />
</svg>
