<?xml version="1.0" encoding="UTF-8" standalone="no"?>
<svg
   version="1.1"
   width="330"
   height="40"
   shape-rendering="crispEdges"
   id="svg61"
   sodipodi:docname="long_x10.svg"
   inkscape:version="1.3.2 (091e20ef0f, 2023-11-25, custom)"
   inkscape:export-filename="long_x10.png"
   inkscape:export-xdpi="96"
   inkscape:export-ydpi="96"
   xmlns:inkscape="http://www.inkscape.org/namespaces/inkscape"
   xmlns:sodipodi="http://sodipodi.sourceforge.net/DTD/sodipodi-0.dtd"
   xmlns="http://www.w3.org/2000/svg"
   xmlns:svg="http://www.w3.org/2000/svg">
  <defs
     id="defs61" />
  <sodipodi:namedview
     id="namedview61"
     pagecolor="#ffffff"
     bordercolor="#000000"
     borderopacity="0.25"
     inkscape:showpageshadow="2"
     inkscape:pageopacity="0.0"
     inkscape:pagecheckerboard="0"
     inkscape:deskcolor="#d1d1d1"
     inkscape:zoom="4.7192864"
     inkscape:cx="-22.461023"
     inkscape:cy="37.929463"
     inkscape:window-width="1536"
     inkscape:window-height="792"
     inkscape:window-x="0"
     inkscape:window-y="0"
     inkscape:window-maximized="1"
     inkscape:current-layer="svg61" />
  <path
     d="M 40,0 V 10 20 30 40 H 50 V 30 20 H 60 70 V 10 0 H 60 50 Z"
     style="stroke-width:10"
     id="path62" />
  <path
     d="m 160,0 v 10 h 10 v 10 10 10 h 10 V 30 20 10 h 10 V 0 h -10 -10 z"
     style="stroke-width:10"
     id="path65" />
  <path
     d="m 200,0 v 10 10 10 10 h 10 10 10 V 30 H 220 210 V 20 h 10 V 10 h 10 V 0 h -10 -10 z"
     style="stroke-width:10"
     id="path66" />
  <path
     d="M 0,0 V 10 20 H 10 20 V 10 H 30 V 0 H 20 10 Z M 20,20 V 30 H 10 0 V 40 H 10 20 30 V 30 20 Z"
     style="stroke-width:10"
     id="path61" />
  <path
     d="M 80,0 V 10 20 30 40 H 90 V 30 h 10 V 20 h 10 V 10 0 H 100 90 Z m 20,30 v 10 h 10 V 30 Z"
     style="stroke-width:10"
     id="path63" />
  <path
     d="m 120,0 v 10 h 10 v 10 10 h -10 v 10 h 10 10 10 V 30 H 140 V 20 10 h 10 V 0 h -10 -10 z"
     style="stroke-width:10"
     id="path64" />
  <path
     d="m 290,0 v 10 h -10 v 10 h 10 v 10 h 10 v 10 h 10 V 30 h 10 V 20 h 10 V 10 H 320 V 0 H 310 V 10 H 300 V 0 Z"
     style="fill:#ff0000;stroke-width:10"
     id="path68" />
  <path
     d="m 240,0 v 10 10 h 10 10 V 10 h 10 V 0 h -10 -10 z m 20,20 v 10 h -10 -10 v 10 h 10 10 10 V 30 20 Z"
     style="stroke-width:10"
     id="path67" />
</svg>
