<?xml version="1.0" encoding="UTF-8" standalone="no"?>
<svg
   version="1.1"
   width="11"
   height="9"
   shape-rendering="crispEdges"
   id="svg38"
   sodipodi:docname="square.svg"
   inkscape:version="1.3.2 (091e20ef0f, 2023-11-25, custom)"
   inkscape:export-filename="square.png"
   inkscape:export-xdpi="96"
   inkscape:export-ydpi="96"
   xmlns:inkscape="http://www.inkscape.org/namespaces/inkscape"
   xmlns:sodipodi="http://sodipodi.sourceforge.net/DTD/sodipodi-0.dtd"
   xmlns="http://www.w3.org/2000/svg"
   xmlns:svg="http://www.w3.org/2000/svg">
  <defs
     id="defs38" />
  <sodipodi:namedview
     id="namedview38"
     pagecolor="#ffffff"
     bordercolor="#000000"
     borderopacity="0.25"
     inkscape:showpageshadow="2"
     inkscape:pageopacity="0.0"
     inkscape:pagecheckerboard="0"
     inkscape:deskcolor="#d1d1d1"
     inkscape:zoom="1.1172219"
     inkscape:cx="-219.29394"
     inkscape:cy="83.242191"
     inkscape:window-width="1536"
     inkscape:window-height="792"
     inkscape:window-x="0"
     inkscape:window-y="0"
     inkscape:window-maximized="1"
     inkscape:current-layer="svg38"
     inkscape:export-bgcolor="#ffffff00" />
  <path
     d="M 0,0 V 1 2 H 1 2 V 1 H 3 V 0 H 2 1 Z M 2,2 V 3 H 1 0 V 4 H 1 2 3 V 3 2 Z"
     style=""
     id="path38" />
  <path
     d="M 4,0 V 1 2 3 4 H 5 V 3 2 H 6 7 V 1 0 H 6 5 Z"
     style=""
     id="path39" />
  <path
     d="M 8,0 V 1 2 3 4 H 9 V 3 h 1 V 2 h 1 V 1 0 H 10 9 Z m 2,3 v 1 h 1 V 3 Z"
     style=""
     id="path40" />
  <path
     d="M 4,5 V 6 H 3 V 7 H 4 V 8 H 5 V 9 H 6 V 8 H 7 V 7 H 8 V 6 H 7 V 5 H 6 V 6 H 5 V 5 Z"
     style="fill:#ff0000"
     id="path41" />
</svg>
