<?xml version="1.0" encoding="UTF-8" standalone="no"?>
<!-- Created with Inkscape (http://www.inkscape.org/) -->

<svg
   width="1369.454"
   height="512"
   viewBox="0 0 362.33468 135.46666"
   version="1.1"
   id="svg1"
   sodipodi:docname="banner_512_dark.svg"
   inkscape:version="1.3.2 (091e20ef0f, 2023-11-25, custom)"
   inkscape:export-filename="banner_512_dark.png"
   inkscape:export-xdpi="96"
   inkscape:export-ydpi="96"
   xmlns:inkscape="http://www.inkscape.org/namespaces/inkscape"
   xmlns:sodipodi="http://sodipodi.sourceforge.net/DTD/sodipodi-0.dtd"
   xmlns="http://www.w3.org/2000/svg"
   xmlns:svg="http://www.w3.org/2000/svg">
  <sodipodi:namedview
     id="namedview1"
     pagecolor="#ffffff"
     bordercolor="#000000"
     borderopacity="0.25"
     inkscape:showpageshadow="2"
     inkscape:pageopacity="0.0"
     inkscape:pagecheckerboard="0"
     inkscape:deskcolor="#d1d1d1"
     inkscape:document-units="px"
     inkscape:zoom="0.54900891"
     inkscape:cx="659.36999"
     inkscape:cy="289.61279"
     inkscape:window-width="1536"
     inkscape:window-height="792"
     inkscape:window-x="0"
     inkscape:window-y="0"
     inkscape:window-maximized="1"
     inkscape:current-layer="g1"
     showgrid="false" />
  <defs
     id="defs1" />
  <g
     inkscape:label="Layer"
     inkscape:groupmode="layer"
     id="layer1">
    <rect
       width="362.33469"
       height="135.46666"
       id="rect1"
       x="0"
       y="0"
       style="fill:#000000;fill-opacity:1;stroke-width:0;stroke-dasharray:none"
       inkscape:label="Background" />
    <g
       id="g1"
       inkscape:label="Abendiix"
       style="stroke-width:0;stroke-dasharray:none">
      <rect
         y="187.49684"
         width="303.06815"
         height="6.9272714"
         id="rect6"
         x="-61.99152"
         style="fill:#ffffff;fill-opacity:1;stroke-width:0;stroke-dasharray:none"
         transform="translate(91.624852,-88.59079)"
         inkscape:label="Bottom" />
      <polygon
         points="930,192 1050,192 930,72 1050,72 "
         id="polygon5"
         transform="matrix(0.2886363,0,0,0.2886363,29.633329,29.633329)"
         style="fill:#ffffff;fill-opacity:1;stroke-width:0;stroke-dasharray:none"
         inkscape:label="X" />
      <rect
         x="180.463"
         y="139.00592"
         width="17.318178"
         height="34.636356"
         id="rect5"
         style="fill:#ffffff;fill-opacity:1;stroke-width:0;stroke-dasharray:none"
         transform="translate(91.624852,-88.59079)"
         inkscape:label="I-2" />
      <rect
         x="154.48572"
         y="139.00592"
         width="17.318178"
         height="34.636356"
         id="rect4"
         style="fill:#ffffff;fill-opacity:1;stroke-width:0;stroke-dasharray:none"
         transform="translate(91.624852,-88.59079)"
         inkscape:label="I-1" />
      <polygon
         points="600,192 720,132 600,72 "
         id="polygon4"
         transform="matrix(0.2886363,0,0,0.2886363,29.633329,29.633329)"
         style="fill:#ffffff;fill-opacity:1;stroke-width:0;stroke-dasharray:none"
         inkscape:label="D" />
      <polyline
         points="570 192 450 192 450 72 510 132 510 72 570 72"
         id="polyline3"
         transform="matrix(0.2886363,0,0,0.2886363,29.633329,29.633329)"
         style="fill:#ffffff;fill-opacity:1;stroke-width:0;stroke-dasharray:none"
         inkscape:label="N" />
      <polygon
         points="300,192 420,192 420,132 360,132 420,72 300,72 "
         id="polygon3-0"
         transform="matrix(0.2886363,0,0,0.2886363,29.633329,29.633329)"
         style="fill:#ffffff;fill-opacity:1;stroke-width:0;stroke-dasharray:none"
         inkscape:label="E" />
      <polygon
         points="150,72 150,192 270,192 210,132 270,72 "
         id="polygon2"
         transform="matrix(0.2886363,0,0,0.2886363,29.633329,29.633329)"
         style="fill:#ffffff;fill-opacity:1;stroke-width:0;stroke-dasharray:none"
         inkscape:label="B" />
      <polygon
         points="0,192 120,192 60,72 "
         id="polygon1-5"
         transform="matrix(0.2886363,0,0,0.2886363,29.633329,29.633329)"
         style="fill:#ffffff;fill-opacity:1;stroke-width:0;stroke-dasharray:none"
         inkscape:label="A" />
      <rect
         width="303.06815"
         height="6.9272714"
         id="rect7"
         x="-61.99152"
         y="118.22411"
         style="fill:#ffffff;fill-opacity:1;stroke-width:0;stroke-dasharray:none"
         transform="translate(91.624852,-88.59079)"
         inkscape:label="Top" />
    </g>
  </g>
</svg>
